Patient4_TMGait_0pt4_02_right_22_EMG.mot
version=1
nRows=26
nColumns=33
inDegrees=no
endheader
time	1LAddLong	2LGlutMax	3LGlutMed	4LIliopsoas	5LSemiMemb	6LBicFemLong	7LRecFem	8LVastMed	9LVastLat	10LGasMed	11LTibAnt	12lTibPost	13LPeroneusLong	14LSol	15LExtDigLong	16LFlexDigLong	17RAddLong	18RGlutMax	19RGlutMed	20RIliopsoas	21RSemiMemb	22RBicFemLong	23RRecFem	24RVastMed	25RVastLat	26RGasMed	27RTibAnt	28RTibPost	29RPeroneusLong	30RSol	31RExtDigLong	32RFlexDigLong
30.235	0.010681	-0.11749	0.070343	0.002441	0.028992	0.014954	-0.096283	-0.012207	0.07309	0.005493	0.061798	0.01236	-0.049896	-0.1712	0.019989	-0.01297	0.007172	0.01236	-0.2861	0.088196	0.30884	0.15656	0.033569	-0.027466	0.022125	-0.013733	0.062408	-0.000153	-0.051422	0.006256	-0.00412	0.01236
30.236	0.006561	-0.10529	0.06958	0.00412	0.021973	0.018921	-0.072327	-0.010681	0.16876	-0.017548	-0.007477	0.002899	-0.032806	-0.029144	0.029755	-0.011749	-0.006714	-0.010529	-0.24765	0.3096	0.24094	0.10696	0.022125	-0.03418	0.018921	-0.010223	0.062256	-0.002594	-0.058746	-0.007477	-0.002289	0.007935
30.237	0.003052	-0.081482	0.088654	0.00824	0.022583	-0.007172	-0.025787	-0.016785	0.2858	-0.035095	-0.003815	0.00061	-0.027466	0.094604	0.024414	-0.011597	-0.003357	0.00351	0.074615	0.21423	0.12054	0.057983	0.03067	-0.059967	0.033112	-0.011597	0.064697	0.001373	-0.042114	0.001373	-0.003052	0.00946
30.238	0.008392	-0.096588	-0.006104	0.006714	0.013123	-0.020142	0.046387	-0.000305	0.19928	-0.061188	-0.010529	0.005646	-0.018158	0.083008	0.017548	-0.007782	0.045471	-0.032959	0.54077	0.072327	0.05661	0.00061	0.035706	-0.10422	0.008087	-0.012512	0.049591	-0.003052	-0.030212	0.015717	-0.004272	0.007019
30.239	0.012512	-0.063171	-0.004883	0.018311	0.018921	-0.008698	0.05722	-0.002289	-0.004272	-0.058746	0.001831	-0.005646	-0.038452	0.11719	0.03006	0.001221	0.065613	-0.034637	-0.041351	0.082703	-0.040894	-0.052948	0.061035	-0.10819	0.01709	-0.010834	0.050507	-0.006104	-0.033417	0.010834	-0.002136	0.009003
30.24	0.001678	-0.075073	0.030518	0.011292	0.011597	-0.004425	0.035706	0.001373	-0.13977	-0.034485	0.010223	0.002747	-0.033722	0.037231	0.045624	-0.001068	0.062866	-0.046692	-0.82947	0.034637	-0.06958	-0.04303	0.056915	-0.090485	0.025177	-0.011292	0.055847	-0.009003	-0.035248	0.008698	-0.001678	0.007935
30.241	0.001526	-0.068054	0.053406	0.000916	0.009003	0.006561	0.054321	-0.011902	-0.07431	-0.027924	0.019073	0.019226	-0.004578	0.055237	0.036774	0.010223	-0.007629	-0.041656	-0.72617	0.028687	-0.068207	-0.00473	0.002747	-0.002136	0.025787	-0.016022	0.054626	-0.003052	-0.02594	-0.003662	0.001068	0.009155
30.242	-0.007324	-0.076904	0.041199	-0.000916	0.013733	-0.02655	0.077667	-0.021057	-0.015717	-0.004272	0.035095	0.001984	-0.026398	0.042114	0.024414	-0.001526	-0.058746	-0.023651	-0.069122	0.01236	0.19562	0.18021	-0.019226	0.084686	0.048218	-0.00473	0.055084	-0.002136	-0.018463	0.020905	0.000458	0.014191
30.243	-0.003967	-0.087128	0.00061	0.028687	0.028229	-0.021667	0.063171	-0.016937	0.013275	-0.016479	0.088501	0.007477	-0.029907	0.067596	0.013428	0.003357	-0.069733	0.019073	0.29907	-0.029144	0.017853	0.30838	0.032806	0.071564	0.052948	-0.006714	0.08194	-0.003357	-0.042114	0.013733	-0.001831	0.005646
30.244	-0.000153	-0.11414	-0.003967	0.021362	0.015259	0.001221	0.022736	-0.016937	0	-0.02533	0.10025	-0.005646	0.024414	0.059967	-0.039063	0.000153	-0.056	-0.014496	0.54352	-0.049591	-0.077972	0.28061	0.054016	0.006256	0.035706	-0.010986	0.1062	-0.002289	-0.055847	-0.030823	0.001831	0.002289
30.245	0.01236	-0.086212	0.022888	-0.000916	0.003052	0.021057	0.024109	-0.010071	-0.014954	-0.002899	0.080109	0.009155	0.078583	0.066071	-0.08255	-0.002747	-0.041351	-0.061798	0.31052	-0.003662	-0.04303	0.20645	0.04837	0.023499	0.027618	-0.000458	0.078888	-0.001984	-0.056	0.003662	-0.001678	0.008698
30.246	0.009155	-0.063629	-0.011444	-0.001831	-0.0177	0.022583	0.028839	-0.00885	-0.14801	-0.028076	-0.036469	0.010223	0.13306	0.11841	-0.07431	0.010529	-0.028687	-0.065002	0.075378	0.002594	-0.00061	0.18799	0.041046	-0.012054	0.019836	-0.005188	0.066376	-0.000153	-0.042114	0.003815	-0.001678	0.009613
30.247	-0.000153	-0.077972	0.044556	-0.003052	-0.032501	-0.010529	0.02594	0.001068	-0.13748	-0.022278	-0.087128	0.013885	0.14923	0.075073	-0.001373	0.001526	-0.024109	-0.031738	-0.036163	-0.026703	0.13733	0.14679	0.003967	-0.050049	0.037079	-0.00885	-0.028839	0.000153	0.006256	0.01297	0.002441	0.014954
30.248	0.001678	-0.069275	0.10315	-0.00351	0.000305	-0.021362	-0.014038	0.005493	-0.076599	-0.039215	-0.069275	0.013733	0.049286	0.04776	0.013733	0.005798	0.030365	-0.01358	-0.025482	-0.029144	-0.02533	0.098877	0.002136	-0.075226	0.014801	-0.001526	0.10635	-0.000916	0.006561	-0.010071	-0.002136	0.013733
30.249	0.004578	-0.092468	0.067139	0.003967	-0.007935	-0.005646	-0.0354	0.010071	0.008392	-0.040894	-0.027161	-0.011444	-0.062714	0.04776	0.009918	0.010529	0.068817	0.031891	-0.20065	-0.016327	-0.11795	0.049591	0.059662	-0.11398	0.010071	-0.00412	0.047455	-0.001373	0.001678	-0.015106	-0.000916	0.016327
30.25	0.006714	-0.074768	0.016937	-0.012665	-0.002747	-0.015106	-0.03006	-0.006561	0.090942	-0.063629	-0.012512	-0.000763	-0.047607	0.033264	0.01709	0.014648	0.073547	0.087128	0.021362	-0.037231	-0.1918	0.055695	0.023956	-0.13168	0.020599	-0.005646	0.0383	-0.002441	0.024567	-0.018768	-0.00061	0.01709
30.251	0.000153	-0.061951	0.029297	0.011597	0.04837	-0.019684	0.002441	-0.004883	0.073395	-0.096741	0.02594	0.006714	-0.026093	0.019989	0.023041	0.068359	0.042267	0.045013	0.17868	-0.009613	-0.13046	0.14755	0.001221	-0.087433	0.032196	-0.010681	0.061646	-0.001984	0.047913	-0.016632	-0.007172	0.015259
30.252	0.003967	-0.070953	0.023041	0.015259	0.033112	0.001831	0	-0.009918	0.081329	-0.096893	0.019073	-0.002747	-0.050812	-0.011597	0.024414	0.085297	-0.024261	0.031281	0.15991	0.000305	-0.2533	0.24674	0.011749	-0.043945	0.021515	-0.007935	0.058899	-0.003357	-0.053406	-0.025482	-0.008392	0.016479
30.253	0.007629	-0.073395	-0.005341	0.015869	-0.002747	0.019836	0.028534	-0.00824	0.045776	-0.042419	0.002899	0.01297	-0.040741	0.011444	0.018616	-0.32791	-0.058594	-0.00412	0.28976	0.026855	0.13901	0.22675	-0.014954	0.071106	0.052643	-0.002289	0.014954	-0.007019	-0.15625	-0.027008	-0.003204	0.012054
30.254	0.010376	-0.030975	-0.02243	0.01236	-0.040283	0.006866	0.063782	-0.004425	-0.00473	0.020905	0.030365	0.018311	-0.005798	0.006256	0.00824	0.10422	-0.032959	0.006256	0.19028	-0.009003	0.40222	0.067902	0.006256	0.047302	0.040588	-0.000305	-0.007477	-0.002899	-0.044403	-0.023804	-0.00351	0.015717
30.255	0.011292	-0.049438	-0.04776	0.018005	0.005188	-0.029755	0.057373	-0.000916	0.007477	0.10605	0.024567	0.019836	0.037537	-0.012207	-0.019989	-1.1618	-0.02243	-0.032806	-0.062714	-0.014496	0.14236	0.023804	0.00946	-0.005341	0.014343	0.002289	-0.017548	-0.001068	0.057068	0.005646	-0.001373	0.024261
30.256	0.006866	-0.019836	-0.018921	0.006714	0.044403	-0.020905	0.05249	0.003662	0.018616	0.13107	0.009003	-0.01297	0.071259	-0.037384	-0.014954	0.18249	-0.027008	-0.021973	-0.17853	0.00885	0.020142	0.004883	0.004883	-0.025024	0.040588	0.000305	-0.051727	-0.006561	0.096893	0.033722	0.000458	0.020294
30.257	0.006714	-0.023193	0.10529	0.002289	0.028992	-0.029144	0.05661	0.001068	-0.017395	0.11093	0.018311	-0.017242	0.08606	-0.053253	0.009003	0.82871	-0.031738	0.010376	-0.21774	0.001526	-0.015717	0.049896	-0.001221	-0.009155	0.02594	0.005798	-0.002594	-0.00824	0.030518	-0.009308	-0.007935	0.019989
30.258	0.005188	-0.045929	0.059204	0.010376	0.045624	-0.004578	0.053406	-0.005493	-0.015564	-0.16312	0.020294	0.014954	0.055237	-0.016479	0.006409	-0.29678	-0.02594	0.040131	-0.26169	-0.031281	-0.003662	0.062561	-0.023651	-0.030975	0.024567	0.003815	0.041656	-0.003662	0.069733	-0.00885	0.000153	0.015717
30.259	0.009613	-0.044403	0.021362	0.027161	0.048981	0	0.056763	0.006104	0.007935	-0.1828	0.027771	0.002441	0.009308	-0.028229	-0.001068	-0.11322	-0.014954	-0.002899	-0.02243	-0.043793	0.002899	0.047455	-0.008392	-0.003204	0.029449	0.003967	0.067444	-0.006104	0.38162	-0.023041	-0.002899	0.02533
30.26	0.002747	-0.055237	0.019836	0.017395	0.033264	0.015411	0.056305	-0.00351	-0.021667	-0.017548	0.029602	0.005035	-0.070648	0.18707	-0.010834	0.55893	-0.012665	-0.041809	0.002899	0.069885	0.001831	0.033875	-0.037994	0.032654	0.017242	0.006714	0.094299	-0.005951	0.16251	0.002136	-0.002289	0.034027
